<?xml version="1.0" encoding="UTF-8" standalone="no"?>
<svg
   xmlns:dc="http://purl.org/dc/elements/1.1/"
   xmlns:cc="http://creativecommons.org/ns#"
   xmlns:rdf="http://www.w3.org/1999/02/22-rdf-syntax-ns#"
   xmlns:svg="http://www.w3.org/2000/svg"
   xmlns="http://www.w3.org/2000/svg"
   xmlns:sodipodi="http://sodipodi.sourceforge.net/DTD/sodipodi-0.dtd"
   xmlns:inkscape="http://www.inkscape.org/namespaces/inkscape"
   width="298.57681mm"
   height="178.51508mm"
   viewBox="0 0 298.57681 178.51508"
   version="1.1"
   id="svg8"
   inkscape:version="1.0.1 (0767f8302a, 2020-10-17)"
   sodipodi:docname="PyMassSpec.svg"
   inkscape:export-filename="/home/domdf/Python/01 GitHub Repos/03 Libraries/pyms-github/logo/PyMassSpec_262.png"
   inkscape:export-xdpi="22.288403"
   inkscape:export-ydpi="22.288403">
  <defs
     id="defs2">
    <inkscape:path-effect
       effect="powerstroke"
       id="path-effect1075"
       is_visible="true"
       lpeversion="1"
       offset_points="0.20980627,0.22986877 | 2.499074,0.21419032 | 4.756687,0.077719884"
       sort_points="true"
       interpolator_type="CentripetalCatmullRom"
       interpolator_beta="1"
       start_linecap_type="butt"
       linejoin_type="round"
       miter_limit="5.4"
       scale_width="22.7"
       end_linecap_type="zerowidth" />
    <inkscape:path-effect
       effect="powerstroke"
       id="path-effect1037"
       is_visible="true"
       lpeversion="1"
       offset_points="0.20980627,0.22986877 | 2.499074,0.21419032 | 4.756687,0.077719884"
       sort_points="true"
       interpolator_type="CentripetalCatmullRom"
       interpolator_beta="1"
       start_linecap_type="butt"
       linejoin_type="round"
       miter_limit="5.4"
       scale_width="22.7"
       end_linecap_type="zerowidth" />
    <inkscape:path-effect
       effect="powerstroke"
       id="path-effect1031"
       is_visible="true"
       lpeversion="1"
       offset_points="0.20980627,0.22986877 | 2.499074,0.21419032 | 4.756687,0.077719884"
       sort_points="true"
       interpolator_type="CentripetalCatmullRom"
       interpolator_beta="1"
       start_linecap_type="butt"
       linejoin_type="round"
       miter_limit="5.4"
       scale_width="22.7"
       end_linecap_type="zerowidth" />
    <inkscape:path-effect
       effect="powerstroke"
       id="path-effect849"
       is_visible="true"
       lpeversion="1"
       offset_points="0.20980627,0.22986877 | 2.499074,0.21419032 | 4.756687,0.077719884"
       sort_points="true"
       interpolator_type="CentripetalCatmullRom"
       interpolator_beta="1"
       start_linecap_type="butt"
       linejoin_type="round"
       miter_limit="5.4"
       scale_width="22.7"
       end_linecap_type="zerowidth" />
    <inkscape:path-effect
       effect="powerstroke"
       id="path-effect835"
       is_visible="true"
       lpeversion="1"
       offset_points="0.20980627,0.22986877 | 2.499074,0.21419032 | 4.756687,0.077719884"
       sort_points="true"
       interpolator_type="CentripetalCatmullRom"
       interpolator_beta="1"
       start_linecap_type="butt"
       linejoin_type="round"
       miter_limit="5.4"
       scale_width="22.7"
       end_linecap_type="zerowidth" />
  </defs>
  <sodipodi:namedview
     id="base"
     pagecolor="#ffffff"
     bordercolor="#666666"
     borderopacity="1.0"
     inkscape:pageopacity="0.0"
     inkscape:pageshadow="2"
     inkscape:zoom="0.5"
     inkscape:cx="564.23965"
     inkscape:cy="273.78964"
     inkscape:document-units="mm"
     inkscape:current-layer="layer4"
     inkscape:document-rotation="0"
     showgrid="false"
     showguides="true"
     inkscape:guide-bbox="true"
     inkscape:window-width="1861"
     inkscape:window-height="1056"
     inkscape:window-x="1979"
     inkscape:window-y="24"
     inkscape:window-maximized="1"
     fit-margin-top="10"
     fit-margin-left="10"
     fit-margin-right="10"
     fit-margin-bottom="10" />
  <metadata
     id="metadata5">
    <rdf:RDF>
      <cc:Work
         rdf:about="">
        <dc:format>image/svg+xml</dc:format>
        <dc:type
           rdf:resource="http://purl.org/dc/dcmitype/StillImage" />
        <dc:title></dc:title>
      </cc:Work>
    </rdf:RDF>
  </metadata>
  <g
     inkscape:groupmode="layer"
     id="layer4"
     inkscape:label="Background">
    <rect
       style="fill:#ffffff;fill-opacity:1;stroke:#ffffff;stroke-width:1;stroke-miterlimit:4;stroke-dasharray:none;stroke-opacity:1"
       id="rect1447"
       width="298.577"
       height="178.51508"
       x="-9.1552734e-05"
       y="3.5527137e-15" />
  </g>
  <g
     inkscape:label="Logo"
     inkscape:groupmode="layer"
     id="layer1"
     transform="translate(0.78840215,-15.742462)"
     style="display:inline">
    <rect
       style="fill:none;stroke:#000000;stroke-width:2;stroke-miterlimit:4;stroke-dasharray:none;stroke-opacity:1"
       id="rect843"
       width="13"
       height="13.000001"
       x="-55.055996"
       y="184.13875" />
    <path
       style="fill:#000000;fill-rule:nonzero;stroke:none;stroke-width:0.264583px;stroke-linecap:butt;stroke-linejoin:miter;stroke-opacity:1"
       d="m -300.11464,102.98113 c -0.003,0.0323 -0.2074,0.60638 -0.60204,9.24944 -0.0452,0.99034 -0.0936,2.15348 -0.13828,3.45413 -0.17647,5.13866 -0.44203,16.29006 0.52143,28.11867 0.39685,4.87217 1.02908,10.21542 2.05261,15.46653 0.93532,4.79853 2.23869,9.73599 4.09376,14.22618 1.72867,4.18423 4.05603,8.27376 7.26679,11.46746 1.56267,1.55437 3.35721,2.91874 5.411,3.96266 2.01849,1.02598 4.23405,1.71479 6.63653,1.99109 2.13622,0.2457 4.23365,0.12227 6.24463,-0.44463 1.98671,-0.56007 3.74994,-1.51416 5.28617,-2.76953 1.49992,-1.22569 2.73453,-2.69735 3.76168,-4.28521 1.01328,-1.56642 1.85013,-3.28511 2.55675,-5.07541 1.38541,-3.51009 2.35929,-7.52756 3.13326,-11.66579 0.76716,-4.10179 1.36419,-8.47382 1.94814,-12.76339 0.58524,-4.29901 1.15354,-8.48542 1.87062,-12.39336 0.71895,-3.91811 1.55378,-7.35974 2.61531,-10.19139 0.52786,-1.40809 1.08971,-2.60481 1.68265,-3.60046 0.59457,-0.9984 1.19476,-1.75149 1.78428,-2.3094 0.58205,-0.55084 1.16896,-0.92688 1.77918,-1.17377 0.61389,-0.24838 1.36415,-0.41181 2.32174,-0.41043 0.90644,8.8e-4 1.60788,0.14135 2.16662,0.34408 0.56336,0.20441 1.07911,0.50735 1.57453,0.93276 0.51149,0.43922 1.03102,1.03719 1.54025,1.82437 0.52097,0.80534 1.01451,1.78092 1.47749,2.93438 0.95965,2.39084 1.69949,5.31985 2.32309,8.61049 0.63945,3.37434 1.14433,7.06417 1.63802,10.69535 1.7e-4,0.001 0.0112,0.0827 0.0114,0.0839 0.49068,3.60981 1.02831,7.63394 1.71709,11.41465 0.66599,3.65564 1.52614,7.4018 2.77571,10.80688 1.20663,3.28806 2.87004,6.52317 5.31384,9.10518 1.21392,1.28257 2.62242,2.40586 4.2536,3.28371 1.61875,0.87115 3.39656,1.46796 5.32801,1.76472 2.26714,0.35166 4.46916,0.33191 6.59588,-0.0447 2.11091,-0.37384 4.08291,-1.08771 5.91959,-2.06604 3.62297,-1.92984 6.68206,-4.86718 9.33416,-8.21375 2.64774,-3.34108 5.01295,-7.24857 7.19834,-11.31181 2.18862,-4.06928 4.26786,-8.43145 6.27803,-12.6451 2.05194,-4.30119 4.02303,-8.42852 6.08109,-12.24891 2.08515,-3.87067 4.16716,-7.24905 6.35111,-9.9843 1.10158,-1.37965 2.20534,-2.56528 3.31907,-3.55323 1.12599,-0.99883 2.24833,-1.78332 3.37492,-2.36399 1.13765,-0.58639 2.29644,-0.97387 3.49765,-1.16046 1.22184,-0.18979 2.53811,-0.17957 3.97702,0.0824 0.83831,0.14016 1.59212,0.38961 2.28218,0.73073 0.70822,0.35011 1.37484,0.80959 2.00774,1.37962 1.33072,1.19855 2.48981,2.86657 3.50192,4.91378 1.07612,2.17666 1.93846,4.68508 2.65523,7.28969 0.77881,2.83008 1.39664,5.81721 1.91521,8.58789 0.59775,3.19367 1.08846,6.19596 1.55843,8.83111 0.60192,3.37501 1.11886,5.90809 1.70015,8.08729 0.0356,0.13335 0.0711,0.26427 0.10661,0.39282 0.73309,2.65436 1.54767,4.54816 2.40846,5.92112 0.59364,0.94683 1.18547,1.60616 1.73457,2.06749 0.79791,0.67039 1.46935,0.89983 1.92451,1.02639 -0.34823,-0.31925 -0.71775,-0.84954 -1.04739,-1.68372 -0.22515,-0.56979 -0.44011,-1.29269 -0.65,-2.24075 -0.30928,-1.39698 -0.58931,-3.18565 -0.91081,-5.78562 -0.0155,-0.1252 -0.0311,-0.25273 -0.0468,-0.38276 -0.27647,-2.29019 -0.48472,-4.45131 -0.81966,-8.00177 -0.23579,-2.49944 -0.54824,-5.83204 -0.93955,-9.00747 -0.35268,-2.8619 -0.82044,-6.04514 -1.49193,-9.14299 -0.61359,-2.8308 -1.43478,-5.77168 -2.59208,-8.47627 -1.08019,-2.52439 -2.52192,-5.00768 -4.51653,-7.03004 -0.96659,-0.98004 -2.07056,-1.85944 -3.33161,-2.5786 -1.23606,-0.70491 -2.60091,-1.2431 -4.09909,-1.5755 -2.12073,-0.45764 -4.20438,-0.56743 -6.24456,-0.3248 -2.00636,0.2386 -3.91314,0.81119 -5.72017,1.66633 -1.77582,0.84037 -3.43205,1.94233 -4.98318,3.23846 -1.53058,1.27896 -2.9661,2.75299 -4.32339,4.36654 -2.66874,3.17262 -5.08591,6.94611 -7.36307,10.97377 -2.24861,3.97714 -4.38453,8.2456 -6.49926,12.47819 -2.10698,4.2171 -4.17341,8.35858 -6.32096,12.18423 -2.14778,3.82605 -4.30789,7.21021 -6.57181,9.95291 -2.28036,2.76262 -4.5195,4.69361 -6.75966,5.81957 -1.11206,0.55895 -2.22477,0.92007 -3.35885,1.09295 -1.13887,0.17362 -2.36029,0.16679 -3.69566,-0.0686 -0.94712,-0.1722 -1.73367,-0.4754 -2.40982,-0.867 -0.68561,-0.39707 -1.31933,-0.92104 -1.91463,-1.58706 -1.23847,-1.38559 -2.308,-3.38476 -3.21485,-6.02671 -0.92912,-2.70686 -1.61534,-5.87327 -2.17748,-9.30067 -0.58001,-3.53633 -1.02478,-7.33542 -1.46253,-11.01481 1.6e-4,0.001 -0.0102,-0.0857 -0.01,-0.0843 -0.42808,-3.59729 -0.9052,-7.54834 -1.54845,-11.23412 -0.6218,-3.56295 -1.45354,-7.2228 -2.71499,-10.50157 -0.62023,-1.61211 -1.36851,-3.1972 -2.29097,-4.67278 -0.91322,-1.46081 -2.01269,-2.84141 -3.36144,-4.04125 -1.34113,-1.19305 -2.89766,-2.177 -4.68568,-2.85959 -1.76708,-0.6746 -3.66667,-1.01918 -5.67728,-1.0433 -2.16853,-0.0254 -4.23936,0.32943 -6.17792,1.08656 -1.92327,0.75116 -3.60081,1.85308 -5.04971,3.19812 -1.42999,1.32748 -2.61614,2.87119 -3.61197,4.51782 -0.99098,1.63861 -1.81687,3.41779 -2.51912,5.2625 -1.39212,3.6569 -2.37601,7.78111 -3.15728,11.96348 -0.78262,4.18956 -1.39439,8.62574 -1.98161,12.86956 -0.60035,4.3388 -1.17144,8.44847 -1.88878,12.25099 -0.72825,3.86035 -1.55979,7.13274 -2.59344,9.7434 -0.51809,1.30849 -1.0582,2.3759 -1.6106,3.22829 -0.55331,0.85379 -1.09589,1.45307 -1.59252,1.85847 -0.48817,0.3985 -0.9741,0.64824 -1.49301,0.79455 -0.535,0.15086 -1.24206,0.22978 -2.19766,0.12027 -1.14058,-0.13075 -2.15421,-0.44878 -3.08108,-0.91908 -0.95448,-0.4843 -1.87598,-1.16062 -2.76795,-2.04627 -1.88486,-1.8715 -3.55434,-4.59582 -4.9784,-8.03284 -1.50663,-3.63629 -2.64807,-7.84835 -3.50643,-12.2274 -0.93313,-4.76052 -1.52836,-9.69856 -1.90897,-14.31256 -0.92648,-11.23125 -0.68613,-21.89317 -0.51149,-26.90436 0.0437,-1.25485 0.0915,-2.37388 0.13702,-3.32873 0.39649,-8.32448 0.57054,-8.79058 0.5675,-8.75824 z"
       id="path847"
       sodipodi:nodetypes="caaaac"
       inkscape:path-effect="#path-effect849"
       inkscape:original-d="m -294.91955,103.46976 c 0,0 -7.43116,79.00718 20.6458,82.23282 24.94194,2.86547 9.32392,-67.20258 34.42901,-66.98839 23.22896,0.19818 7.86675,58.77919 30.7939,62.51681 28.92298,4.71507 33.15972,-68.2501 61.88372,-62.4447 18.50937,3.74093 12.30859,47.67698 21.12021,52.56671" />
    <rect
       style="fill:none;stroke:#000000;stroke-width:2.00002;stroke-miterlimit:4;stroke-dasharray:none;stroke-opacity:1"
       id="rect895"
       width="47.999989"
       height="13.000001"
       x="53.242298"
       y="-242.26807"
       transform="scale(-1)" />
    <rect
       style="fill:none;stroke:#000000;stroke-width:2.00002;stroke-miterlimit:4;stroke-dasharray:none;stroke-opacity:1"
       id="rect913"
       width="17.999979"
       height="13.000001"
       x="145.78491"
       y="25.729382"
       transform="rotate(90)" />
    <path
       style="fill:#306998;fill-opacity:1;fill-rule:nonzero;stroke:#306998;stroke-width:0.264583px;stroke-linecap:butt;stroke-linejoin:miter;stroke-opacity:1"
       d="m 100.40902,-147.19954 c 1.6e-4,0.033 -0.14094,0.58765 0.2961,8.75751 0.0501,0.9361 0.11337,2.03538 0.19312,3.26411 0.31506,4.85382 1.11052,15.3845 3.14151,26.49905 0.83662,4.5784 1.94209,9.591125 3.4121,14.499435 1.34354,4.486001 3.05053,9.084015 5.23987,13.232936 2.04115,3.868108 4.63641,7.60447 7.97601,10.453665 1.62405,1.38557 3.44942,2.582741 5.49204,3.46901 2.00745,0.871002 4.18078,1.422173 6.50697,1.575227 2.14603,0.141215 4.23141,-0.08402 6.21301,-0.731184 1.95444,-0.63829 3.68158,-1.645984 5.18511,-2.932248 1.46977,-1.257383 2.68406,-2.742414 3.70452,-4.350116 1.00429,-1.582227 1.83716,-3.310819 2.54259,-5.110882 1.38354,-3.530425 2.35699,-7.54595 3.13025,-11.673922 0.76607,-4.089577 1.36055,-8.432854 1.94103,-12.684061 0.58182,-4.26107 1.14555,-8.39798 1.85756,-12.25377 0.71389,-3.86596 1.54255,-7.25029 2.59594,-10.02897 0.52365,-1.38129 1.08058,-2.55256 1.66765,-3.5254 0.58845,-0.97511 1.18252,-1.70997 1.76666,-2.2546 0.57672,-0.53773 1.1623,-0.90827 1.77719,-1.15296 0.61956,-0.24655 1.37887,-0.40914 2.34778,-0.40767 0.90644,8.8e-4 1.60788,0.14135 2.16663,0.34408 0.56336,0.20441 1.0791,0.50735 1.57452,0.93276 0.51149,0.43922 1.03103,1.03719 1.54026,1.82437 0.52097,0.80534 1.0145,1.78092 1.47748,2.93438 0.95965,2.39084 1.69949,5.31985 2.32309,8.61049 0.63946,3.37434 1.14433,7.06417 1.63802,10.69535 1.7e-4,0.001 0.0112,0.0827 0.0114,0.0839 0.49068,3.60981 1.02831,7.633935 1.71708,11.414653 0.66599,3.655634 1.52615,7.401795 2.77572,10.806876 1.20662,3.28806 2.87003,6.523171 5.31383,9.105175 1.21392,1.28257 2.62242,2.405866 4.2536,3.283708 1.61876,0.871152 3.39656,1.467959 5.32801,1.764721 2.26714,0.351656 4.46916,0.331912 6.59588,-0.04473 2.1109,-0.373843 4.08291,-1.087712 5.91958,-2.066044 3.62298,-1.929833 6.68206,-4.867176 9.33416,-8.213752 2.64774,-3.341077 5.01295,-7.248559 7.19834,-11.311809 2.18862,-4.06927 4.26786,-8.431448 6.27803,-12.645098 2.05193,-4.30119 4.02302,-8.42851 6.08108,-12.24891 2.08515,-3.87068 4.16716,-7.24906 6.35111,-9.9843 1.10159,-1.37965 2.20534,-2.56529 3.31907,-3.55324 1.126,-0.99883 2.24834,-1.78331 3.37493,-2.364 1.13765,-0.58638 2.29645,-0.97386 3.49766,-1.16045 1.22184,-0.18979 2.53812,-0.17957 3.97703,0.0824 0.83831,0.14017 1.59212,0.38961 2.28218,0.73074 0.70823,0.35011 1.37485,0.80959 2.00775,1.37963 1.33072,1.19855 2.48981,2.86657 3.50193,4.91378 1.07611,2.17666 1.93845,4.68508 2.65522,7.2897 0.77881,2.83007 1.39664,5.81721 1.91521,8.58789 0.59775,3.19367 1.08846,6.19596 1.55842,8.83111 0.60192,3.375014 1.11885,5.908098 1.70014,8.087291 0.0356,0.133352 0.0711,0.264266 0.10661,0.39282 0.73309,2.654394 1.54767,4.548184 2.40845,5.921119 0.59364,0.946846 1.18548,1.60617 1.73457,2.067499 0.79792,0.670387 1.46936,0.899814 1.92452,1.02638 -0.34824,-0.319254 -0.71775,-0.849541 -1.04738,-1.683725 -0.22515,-0.569783 -0.44011,-1.292687 -0.65,-2.240749 -0.30928,-1.396956 -0.58931,-3.185612 -0.91082,-5.78562 -0.0155,-0.125196 -0.0311,-0.252723 -0.0468,-0.382757 -0.27647,-2.290178 -0.48473,-4.451308 -0.81967,-8.001768 -0.23579,-2.49943 -0.54825,-5.83204 -0.93956,-9.00746 -0.35268,-2.8619 -0.82045,-6.04515 -1.49193,-9.143 -0.6136,-2.8308 -1.43478,-5.77167 -2.59208,-8.47626 -1.08019,-2.52439 -2.52192,-5.00768 -4.51653,-7.03003 -0.96659,-0.98004 -2.07056,-1.85944 -3.3316,-2.5786 -1.23606,-0.70491 -2.60091,-1.24309 -4.09908,-1.57549 -2.12073,-0.45765 -4.20438,-0.56744 -6.24456,-0.32481 -2.00636,0.2386 -3.91313,0.81119 -5.72016,1.66633 -1.77582,0.84037 -3.43205,1.94232 -4.98317,3.23845 -1.53059,1.27897 -2.96611,2.753 -4.32339,4.36654 -2.66874,3.17262 -5.08591,6.94611 -7.36307,10.97377 -2.24861,3.97714 -4.38454,8.2456 -6.49926,12.47819 -2.10699,4.2171 -4.17341,8.35857 -6.32097,12.184222 -2.14778,3.826052 -4.30789,7.210214 -6.57181,9.952913 -2.28037,2.762617 -4.51951,4.693608 -6.75966,5.819567 -1.11207,0.55895 -2.22478,0.920069 -3.35886,1.092956 -1.13887,0.173616 -2.36029,0.166788 -3.69566,-0.06864 -0.94713,-0.172201 -1.73367,-0.475401 -2.40982,-0.866999 -0.68562,-0.397077 -1.31933,-0.921047 -1.91463,-1.587067 -1.23847,-1.385594 -2.308,-3.384762 -3.21485,-6.026713 -0.92912,-2.70686 -1.61534,-5.873271 -2.17748,-9.300669 -0.58001,-3.536339 -1.02477,-7.335419 -1.46252,-11.014809 1.6e-4,0.001 -0.0102,-0.0857 -0.01,-0.0843 -0.42808,-3.59729 -0.90521,-7.54834 -1.54845,-11.23412 -0.62181,-3.56295 -1.45355,-7.2228 -2.715,-10.50157 -0.62023,-1.61211 -1.36851,-3.1972 -2.29096,-4.67278 -0.91323,-1.46081 -2.0127,-2.84141 -3.36145,-4.04125 -1.34113,-1.19305 -2.89766,-2.177 -4.68568,-2.85959 -1.76708,-0.6746 -3.66667,-1.01918 -5.67728,-1.0433 -2.1572,-0.0253 -4.21813,0.32088 -6.14946,1.06251 -1.91705,0.73614 -3.59365,1.81857 -5.04508,3.14565 -1.43257,1.30983 -2.62152,2.83489 -3.61976,4.46357 -0.99315,1.62038 -1.81986,3.37975 -2.52202,5.20351 -1.39166,3.61463 -2.37226,7.69132 -3.14955,11.82561 -0.77866,4.14157 -1.38638,8.53166 -1.97015,12.73746 -0.59692,4.30053 -1.1654,8.381972 -1.88171,12.173019 -0.7268,3.846623 -1.55966,7.130999 -2.60032,9.778166 -0.52187,1.327502 -1.06962,2.425625 -1.63588,3.316154 -0.57128,0.898421 -1.13402,1.542562 -1.66822,1.999121 -0.52847,0.451663 -1.05941,0.746891 -1.62102,0.930338 -0.57495,0.187806 -1.30611,0.298621 -2.26555,0.235887 -1.08576,-0.07102 -2.08185,-0.323076 -3.01954,-0.729119 -0.9694,-0.419772 -1.91763,-1.02082 -2.86044,-1.823695 -1.98827,-1.69317 -3.83889,-4.195896 -5.5157,-7.365435 -1.77506,-3.355276 -3.2555,-7.26644 -4.48203,-11.34534 -1.33359,-4.434956 -2.36271,-9.052346 -3.1575,-13.375256 -1.93481,-10.52356 -2.70672,-20.56458 -3.01076,-25.28802 -0.0761,-1.18261 -0.13562,-2.23755 -0.18191,-3.13796 -0.40353,-7.8497 -0.28202,-8.29192 -0.28186,-8.25893 z"
       id="path1035"
       sodipodi:nodetypes="caaaac"
       inkscape:path-effect="#path-effect1037"
       inkscape:original-d="m 105.62699,-147.22367 c 0,0 0.34577,74.761679 27.38373,76.537349 25.05203,1.64524 9.32392,-67.202579 34.429,-66.988389 23.22897,0.19818 7.86675,58.779189 30.7939,62.516809 28.92298,4.71507 33.15972,-68.250099 61.88372,-62.444699 18.50937,3.74093 12.30859,47.676979 21.12021,52.566709" />
    <ellipse
       style="fill:#306998;fill-opacity:1;stroke:#306998;stroke-width:1;stroke-miterlimit:4;stroke-dasharray:none;stroke-opacity:1"
       id="ellipse1065"
       cx="105.59429"
       cy="-153.64766"
       rx="10.722893"
       ry="19.385542" />
    <path
       style="fill:#306998;fill-opacity:1;stroke:#306998;stroke-width:2.2;stroke-linecap:butt;stroke-linejoin:miter;stroke-miterlimit:4;stroke-dasharray:none;stroke-opacity:1"
       d="m 105.59429,-168.15798 v -10.47785"
       id="path1067" />
    <path
       style="fill:#306998;fill-opacity:1;stroke:#306998;stroke-width:0.900001;stroke-linecap:butt;stroke-linejoin:miter;stroke-miterlimit:4;stroke-dasharray:none;stroke-opacity:1"
       d="m 105.06512,-178.40197 -2.46051,-6.44297"
       id="path1069" />
    <path
       style="fill:#306998;fill-opacity:1;stroke:#306998;stroke-width:0.900001;stroke-linecap:butt;stroke-linejoin:miter;stroke-miterlimit:4;stroke-dasharray:none;stroke-opacity:1"
       d="m 106.12345,-178.40214 2.46051,-6.44297"
       id="path1071" />
    <path
       style="fill:#306998;fill-opacity:1;fill-rule:nonzero;stroke:#306998;stroke-width:0.264583px;stroke-linecap:butt;stroke-linejoin:miter;stroke-opacity:1"
       d="m 100.40902,-147.19954 c 1.6e-4,0.033 -0.14094,0.58765 0.2961,8.75751 0.0501,0.9361 0.11337,2.03538 0.19312,3.26411 0.31506,4.85382 1.11052,15.3845 3.14151,26.49905 0.83662,4.5784 1.94209,9.591125 3.4121,14.499435 1.34354,4.486001 3.05053,9.084015 5.23987,13.232936 2.04115,3.868108 4.63641,7.60447 7.97601,10.453665 1.62405,1.38557 3.44942,2.582741 5.49204,3.46901 2.00745,0.871002 4.18078,1.422173 6.50697,1.575227 2.14603,0.141215 4.23141,-0.08402 6.21301,-0.731184 1.95444,-0.63829 3.68158,-1.645984 5.18511,-2.932248 1.46977,-1.257383 2.68406,-2.742414 3.70452,-4.350116 1.00429,-1.582227 1.83716,-3.310819 2.54259,-5.110882 1.38354,-3.530425 2.35699,-7.54595 3.13025,-11.673922 0.76607,-4.089577 1.36055,-8.432854 1.94103,-12.684061 0.58182,-4.26107 1.14555,-8.39798 1.85756,-12.25377 0.71389,-3.86596 1.54255,-7.25029 2.59594,-10.02897 0.52365,-1.38129 1.08058,-2.55256 1.66765,-3.5254 0.58845,-0.97511 1.18252,-1.70997 1.76666,-2.2546 0.57672,-0.53773 1.1623,-0.90827 1.77719,-1.15296 0.61956,-0.24655 1.37887,-0.40914 2.34778,-0.40767 0.90644,8.8e-4 1.60788,0.14135 2.16663,0.34408 0.56336,0.20441 1.0791,0.50735 1.57452,0.93276 0.51149,0.43922 1.03103,1.03719 1.54026,1.82437 0.52097,0.80534 1.0145,1.78092 1.47748,2.93438 0.95965,2.39084 1.69949,5.31985 2.32309,8.61049 0.63946,3.37434 1.14433,7.06417 1.63802,10.69535 1.7e-4,0.001 0.0112,0.0827 0.0114,0.0839 0.49068,3.60981 1.02831,7.633935 1.71708,11.414653 0.66599,3.655634 1.52615,7.401795 2.77572,10.806876 1.20662,3.28806 2.87003,6.523171 5.31383,9.105175 1.21392,1.28257 2.62242,2.405866 4.2536,3.283708 1.61876,0.871152 3.39656,1.467959 5.32801,1.764721 2.26714,0.351656 4.46916,0.331912 6.59588,-0.04473 2.1109,-0.373843 4.08291,-1.087712 5.91958,-2.066044 3.62298,-1.929833 6.68206,-4.867176 9.33416,-8.213752 2.64774,-3.341077 5.01295,-7.248559 7.19834,-11.311809 2.18862,-4.06927 4.26786,-8.431448 6.27803,-12.645098 2.05193,-4.30119 4.02302,-8.42851 6.08108,-12.24891 2.08515,-3.87068 4.16716,-7.24906 6.35111,-9.9843 1.10159,-1.37965 2.20534,-2.56529 3.31907,-3.55324 1.126,-0.99883 2.24834,-1.78331 3.37493,-2.364 1.13765,-0.58638 2.29645,-0.97386 3.49766,-1.16045 1.22184,-0.18979 2.53812,-0.17957 3.97703,0.0824 0.83831,0.14017 1.59212,0.38961 2.28218,0.73074 0.70823,0.35011 1.37485,0.80959 2.00775,1.37963 1.33072,1.19855 2.48981,2.86657 3.50193,4.91378 1.07611,2.17666 1.93845,4.68508 2.65522,7.2897 0.77881,2.83007 1.39664,5.81721 1.91521,8.58789 0.59775,3.19367 1.08846,6.19596 1.55842,8.83111 0.60192,3.375014 1.11885,5.908098 1.70014,8.087291 0.0356,0.133352 0.0711,0.264266 0.10661,0.39282 0.73309,2.654394 1.54767,4.548184 2.40845,5.921119 0.59364,0.946846 1.18548,1.60617 1.73457,2.067499 0.79792,0.670387 1.46936,0.899814 1.92452,1.02638 -0.34824,-0.319254 -0.71775,-0.849541 -1.04738,-1.683725 -0.22515,-0.569783 -0.44011,-1.292687 -0.65,-2.240749 -0.30928,-1.396956 -0.58931,-3.185612 -0.91082,-5.78562 -0.0155,-0.125196 -0.0311,-0.252723 -0.0468,-0.382757 -0.27647,-2.290178 -0.48473,-4.451308 -0.81967,-8.001768 -0.23579,-2.49943 -0.54825,-5.83204 -0.93956,-9.00746 -0.35268,-2.8619 -0.82045,-6.04515 -1.49193,-9.143 -0.6136,-2.8308 -1.43478,-5.77167 -2.59208,-8.47626 -1.08019,-2.52439 -2.52192,-5.00768 -4.51653,-7.03003 -0.96659,-0.98004 -2.07056,-1.85944 -3.3316,-2.5786 -1.23606,-0.70491 -2.60091,-1.24309 -4.09908,-1.57549 -2.12073,-0.45765 -4.20438,-0.56744 -6.24456,-0.32481 -2.00636,0.2386 -3.91313,0.81119 -5.72016,1.66633 -1.77582,0.84037 -3.43205,1.94232 -4.98317,3.23845 -1.53059,1.27897 -2.96611,2.753 -4.32339,4.36654 -2.66874,3.17262 -5.08591,6.94611 -7.36307,10.97377 -2.24861,3.97714 -4.38454,8.2456 -6.49926,12.47819 -2.10699,4.2171 -4.17341,8.35857 -6.32097,12.184222 -2.14778,3.826052 -4.30789,7.210214 -6.57181,9.952913 -2.28037,2.762617 -4.51951,4.693608 -6.75966,5.819567 -1.11207,0.55895 -2.22478,0.920069 -3.35886,1.092956 -1.13887,0.173616 -2.36029,0.166788 -3.69566,-0.06864 -0.94713,-0.172201 -1.73367,-0.475401 -2.40982,-0.866999 -0.68562,-0.397077 -1.31933,-0.921047 -1.91463,-1.587067 -1.23847,-1.385594 -2.308,-3.384762 -3.21485,-6.026713 -0.92912,-2.70686 -1.61534,-5.873271 -2.17748,-9.300669 -0.58001,-3.536339 -1.02477,-7.335419 -1.46252,-11.014809 1.6e-4,0.001 -0.0102,-0.0857 -0.01,-0.0843 -0.42808,-3.59729 -0.90521,-7.54834 -1.54845,-11.23412 -0.62181,-3.56295 -1.45355,-7.2228 -2.715,-10.50157 -0.62023,-1.61211 -1.36851,-3.1972 -2.29096,-4.67278 -0.91323,-1.46081 -2.0127,-2.84141 -3.36145,-4.04125 -1.34113,-1.19305 -2.89766,-2.177 -4.68568,-2.85959 -1.76708,-0.6746 -3.66667,-1.01918 -5.67728,-1.0433 -2.1572,-0.0253 -4.21813,0.32088 -6.14946,1.06251 -1.91705,0.73614 -3.59365,1.81857 -5.04508,3.14565 -1.43257,1.30983 -2.62152,2.83489 -3.61976,4.46357 -0.99315,1.62038 -1.81986,3.37975 -2.52202,5.20351 -1.39166,3.61463 -2.37226,7.69132 -3.14955,11.82561 -0.77866,4.14157 -1.38638,8.53166 -1.97015,12.73746 -0.59692,4.30053 -1.1654,8.381972 -1.88171,12.173019 -0.7268,3.846623 -1.55966,7.130999 -2.60032,9.778166 -0.52187,1.327502 -1.06962,2.425625 -1.63588,3.316154 -0.57128,0.898421 -1.13402,1.542562 -1.66822,1.999121 -0.52847,0.451663 -1.05941,0.746891 -1.62102,0.930338 -0.57495,0.187806 -1.30611,0.298621 -2.26555,0.235887 -1.08576,-0.07102 -2.08185,-0.323076 -3.01954,-0.729119 -0.9694,-0.419772 -1.91763,-1.02082 -2.86044,-1.823695 -1.98827,-1.69317 -3.83889,-4.195896 -5.5157,-7.365435 -1.77506,-3.355276 -3.2555,-7.26644 -4.48203,-11.34534 -1.33359,-4.434956 -2.36271,-9.052346 -3.1575,-13.375256 -1.93481,-10.52356 -2.70672,-20.56458 -3.01076,-25.28802 -0.0761,-1.18261 -0.13562,-2.23755 -0.18191,-3.13796 -0.40353,-7.8497 -0.28202,-8.29192 -0.28186,-8.25893 z"
       id="path1073"
       sodipodi:nodetypes="caaaac"
       inkscape:path-effect="#path-effect1075"
       inkscape:original-d="m 105.62699,-147.22367 c 0,0 0.34577,74.761679 27.38373,76.537349 25.05203,1.64524 9.32392,-67.202579 34.429,-66.988389 23.22897,0.19818 7.86675,58.779189 30.7939,62.516809 28.92298,4.71507 33.15972,-68.250099 61.88372,-62.444699 18.50937,3.74093 12.30859,47.676979 21.12021,52.566709" />
    <ellipse
       style="fill:#306998;fill-opacity:1;stroke:#306998;stroke-width:1;stroke-miterlimit:4;stroke-dasharray:none;stroke-opacity:1"
       id="ellipse1077"
       cx="105.59429"
       cy="-153.64766"
       rx="10.722893"
       ry="19.385542" />
    <g
       id="g1182"
       transform="translate(-4.5268179,-5.1664199)">
      <path
         style="fill:#306998;fill-opacity:1;stroke:#4b8bbe;stroke-width:2.2;stroke-linecap:butt;stroke-linejoin:miter;stroke-miterlimit:4;stroke-dasharray:none;stroke-opacity:1"
         d="M 82.325589,65.706513 V 55.22866"
         id="path983" />
      <path
         id="path1029"
         style="fill:#306998;fill-opacity:1;fill-rule:nonzero;stroke:#4b8bbe;stroke-width:5.66929;stroke-linecap:butt;stroke-linejoin:miter;stroke-miterlimit:4;stroke-dasharray:none;stroke-opacity:1"
         d="m 311.15234,229.91406 a 40.52747,73.26819 0 0 0 -40.52734,73.26758 40.52747,73.26819 0 0 0 22.53125,65.65039 c 0.0879,1.44873 0.14453,2.59157 0.24609,4.15625 1.19078,18.34514 4.19883,58.14655 11.875,100.1543 3.16204,17.30419 7.33857,36.24969 12.89454,54.80078 5.07793,16.95496 11.53003,34.33271 19.80468,50.01367 7.7146,14.61962 17.5244,28.74116 30.14649,39.50977 6.13815,5.2368 13.0357,9.76165 20.75586,13.11132 7.58718,3.29198 15.80185,5.37661 24.59375,5.95508 8.11095,0.53373 15.99291,-0.31771 23.48242,-2.76367 7.38683,-2.41244 13.91504,-6.22251 19.59765,-11.08398 5.55503,-4.75232 10.14511,-10.36505 14.00196,-16.44141 3.79573,-5.98007 6.94318,-12.51302 9.60937,-19.31641 5.22914,-13.34333 8.90752,-28.51931 11.83008,-44.12109 2.89538,-15.45667 5.14201,-31.87188 7.33594,-47.93945 2.19902,-16.10482 4.33043,-31.74137 7.02148,-46.31446 2.69815,-14.61149 5.82922,-27.40221 9.81055,-37.90429 1.97914,-5.22063 4.08389,-9.64737 6.30273,-13.32422 2.22404,-3.68546 4.46997,-6.46303 6.67774,-8.52149 2.17975,-2.03233 4.39279,-3.43261 6.7168,-4.35742 2.34164,-0.93183 5.21104,-1.54659 8.87304,-1.54101 3.42593,0.003 6.07765,0.53454 8.18946,1.30078 2.12922,0.77256 4.07873,1.91752 5.95117,3.52539 1.93319,1.66003 3.89762,3.91935 5.82226,6.89453 1.96903,3.0438 3.83413,6.73227 5.58399,11.0918 3.62702,9.03623 6.42239,20.10587 8.77929,32.54297 2.41684,12.75339 4.3255,26.6997 6.19141,40.42382 L 585.293,479 c 1.85454,13.64336 3.88698,28.85325 6.49023,43.14258 2.51713,13.81657 5.76745,27.97415 10.49024,40.84375 4.56048,12.42731 10.84757,24.65531 20.08398,34.41406 4.58805,4.84751 9.91107,9.09233 16.07617,12.41016 6.11813,3.29254 12.83676,5.5483 20.13672,6.66992 8.56875,1.32909 16.89171,1.25556 24.92969,-0.16797 7.97824,-1.41295 15.43128,-4.11096 22.37305,-7.80859 13.69313,-7.29386 25.2556,-18.39645 35.27929,-31.04493 10.00722,-12.62769 18.94731,-27.39674 27.20704,-42.7539 8.27195,-15.37992 16.12906,-31.86543 23.72656,-47.79102 7.75534,-16.25647 15.20587,-31.8576 22.98437,-46.29687 7.88089,-14.62934 15.7496,-27.39645 24.00391,-37.73438 4.16346,-5.21443 8.33555,-9.6957 12.54492,-13.42969 4.25575,-3.77512 8.4979,-6.74084 12.75586,-8.93554 4.29981,-2.21627 8.67874,-3.67955 13.21875,-4.38477 4.61799,-0.71732 9.59285,-0.67967 15.03125,0.31055 3.16843,0.52975 6.01888,1.47242 8.62695,2.76172 2.67677,1.32326 5.19584,3.06038 7.58789,5.21484 5.02951,4.52995 9.40907,10.83479 13.23438,18.57227 4.0672,8.22675 7.32807,17.70657 10.03711,27.55078 2.94354,10.69636 5.27831,21.98713 7.23828,32.45898 2.25919,12.07057 4.11438,23.41734 5.89062,33.37696 2.27497,12.75595 4.22683,22.33008 6.42383,30.5664 0.13444,0.50401 0.27011,0.9985 0.4043,1.48438 2.77074,10.03235 5.84823,17.18986 9.10156,22.3789 2.24367,3.57863 4.48133,6.07085 6.55664,7.81446 3.01577,2.53374 5.55314,3.40054 7.27344,3.8789 -1.31617,-1.20662 -2.71313,-3.21046 -3.95898,-6.36328 -0.85097,-2.15351 -1.66178,-4.88552 -2.45508,-8.46875 -1.16892,-5.27983 -2.2282,-12.04038 -3.44336,-21.86719 -0.0585,-0.47318 -0.11645,-0.95579 -0.17578,-1.44726 -1.04494,-8.65579 -1.83369,-16.82314 -3.09961,-30.24219 -0.89118,-9.44668 -2.07181,-22.0433 -3.55078,-34.04492 -1.33295,-10.81663 -3.10079,-22.84823 -5.63868,-34.55664 -2.31911,-10.69908 -5.42283,-21.81308 -9.79687,-32.03516 -4.08261,-9.541 -9.53162,-18.92676 -17.07031,-26.57031 -3.65325,-3.70407 -7.82564,-7.028 -12.5918,-9.74609 -4.6717,-2.66422 -9.8298,-4.69877 -15.49219,-5.95508 -8.01535,-1.72968 -15.89064,-2.14357 -23.60156,-1.22656 -7.58308,0.90181 -14.78942,3.06484 -21.61914,6.29687 -6.71175,3.1762 -12.97145,7.34147 -18.83398,12.24023 -5.78489,4.83388 -11.21192,10.40547 -16.3418,16.50391 -10.08659,11.99101 -19.22152,26.25197 -27.82813,41.47461 -8.49867,15.03173 -16.57179,31.16492 -24.56445,47.16211 -7.96341,15.93864 -15.77388,31.59163 -23.89062,46.05078 -8.1176,14.46067 -16.28134,27.25108 -24.8379,37.61719 -8.6187,10.44139 -17.0821,17.7405 -25.54882,21.99609 -4.20307,2.11257 -8.40707,3.47743 -12.69336,4.13086 -4.3044,0.65619 -8.92167,0.63005 -13.96875,-0.25976 -3.57969,-0.65084 -6.55188,-1.79729 -9.10743,-3.27735 -2.59128,-1.50076 -4.98637,-3.4808 -7.23632,-5.99804 -4.68082,-5.2369 -8.72294,-12.79397 -12.15039,-22.7793 -3.51166,-10.23065 -6.10585,-22.19645 -8.23047,-35.15039 -2.19216,-13.36568 -3.87286,-27.72449 -5.52735,-41.63086 l -0.0391,-0.32031 c -1.61794,-13.59606 -3.42041,-28.52846 -5.85156,-42.45899 -2.35013,-13.46624 -5.49403,-27.29918 -10.26172,-39.6914 -2.34418,-6.09302 -5.17175,-12.08317 -8.6582,-17.66016 -3.45157,-5.52119 -7.60742,-10.73862 -12.70508,-15.27344 -5.06884,-4.50917 -10.95115,-8.22873 -17.70899,-10.80859 -6.67874,-2.54966 -13.85785,-3.85217 -21.45703,-3.94336 -8.15319,-0.0957 -15.94269,1.21263 -23.24218,4.01562 -7.24556,2.78228 -13.58266,6.87297 -19.06836,11.88868 -5.41446,4.95056 -9.90876,10.71541 -13.68164,16.87109 -3.75362,6.12424 -6.87742,12.77305 -9.53125,19.66601 -5.2598,13.6616 -8.96652,29.06965 -11.9043,44.69532 -2.94296,15.65318 -5.24089,32.24665 -7.44727,48.14258 -2.25607,16.25395 -4.40404,31.67944 -7.11133,46.00781 -2.74697,14.53842 -5.89493,26.95199 -9.82812,36.95703 -1.97242,5.01733 -4.04144,9.16742 -6.18164,12.5332 -2.15916,3.39561 -4.28762,5.83107 -6.30664,7.55664 -1.99737,1.70708 -4.00238,2.82228 -6.125,3.51563 -2.17306,0.70982 -4.9382,1.12773 -8.56445,0.89062 -4.10367,-0.26844 -7.86808,-1.2212 -11.41211,-2.75586 -3.66385,-1.58654 -7.24718,-3.85808 -10.81055,-6.89257 -7.51473,-6.39939 -14.51013,-15.85854 -20.84766,-27.8379 -6.70891,-12.68135 -12.30377,-27.46259 -16.93945,-42.8789 -5.04034,-16.76205 -8.92968,-34.21421 -11.93359,-50.55274 -7.31266,-39.7741 -10.22976,-77.72381 -11.37891,-95.57617 -0.11993,-1.86314 -0.18809,-3.25526 -0.28711,-4.94336 a 40.52747,73.26819 0 0 0 19.2168,-62.32031 40.52747,73.26819 0 0 0 -40.52735,-73.26758 z"
         transform="scale(0.26458333)" />
      <path
         style="fill:none;stroke:#000000;stroke-width:2;stroke-linecap:butt;stroke-linejoin:miter;stroke-miterlimit:4;stroke-dasharray:none;stroke-opacity:1"
         d="M 45.940822,30.908882 V 185.43486"
         id="path841" />
      <path
         style="fill:none;stroke:#000000;stroke-width:2;stroke-linecap:butt;stroke-linejoin:miter;stroke-miterlimit:4;stroke-dasharray:none;stroke-opacity:1"
         d="M 292.31522,172.43486 H 32.940823"
         id="path845" />
      <path
         style="fill:none;stroke:#000000;stroke-width:1;stroke-linecap:butt;stroke-linejoin:miter;stroke-miterlimit:4;stroke-dasharray:none;stroke-opacity:1"
         d="m 93.940811,172.43486 v 7"
         id="path877" />
      <path
         style="fill:none;stroke:#000000;stroke-width:1;stroke-linecap:butt;stroke-linejoin:miter;stroke-miterlimit:4;stroke-dasharray:none;stroke-opacity:1"
         d="m 141.9408,172.43486 v 7"
         id="path879" />
      <path
         style="fill:none;stroke:#000000;stroke-width:1;stroke-linecap:butt;stroke-linejoin:miter;stroke-miterlimit:4;stroke-dasharray:none;stroke-opacity:1"
         d="m 189.94078,172.43486 v 7"
         id="path881" />
      <path
         style="fill:none;stroke:#000000;stroke-width:1;stroke-linecap:butt;stroke-linejoin:miter;stroke-miterlimit:4;stroke-dasharray:none;stroke-opacity:1"
         d="m 237.94077,172.43486 v 7"
         id="path883" />
      <path
         style="fill:none;stroke:#000000;stroke-width:1;stroke-linecap:butt;stroke-linejoin:miter;stroke-miterlimit:4;stroke-dasharray:none;stroke-opacity:1"
         d="m 285.94077,172.43486 v 7"
         id="path887" />
      <path
         style="fill:none;stroke:#000000;stroke-width:1;stroke-linecap:butt;stroke-linejoin:miter;stroke-miterlimit:4;stroke-dasharray:none;stroke-opacity:1"
         d="m 45.941,154.43486 h -7"
         id="path897" />
      <path
         style="fill:none;stroke:#000000;stroke-width:1;stroke-linecap:butt;stroke-linejoin:miter;stroke-miterlimit:4;stroke-dasharray:none;stroke-opacity:1"
         d="m 45.941,136.43488 h -7"
         id="path915" />
      <path
         style="fill:none;stroke:#000000;stroke-width:1;stroke-linecap:butt;stroke-linejoin:miter;stroke-miterlimit:4;stroke-dasharray:none;stroke-opacity:1"
         d="m 45.941,118.43489 h -7"
         id="path917" />
      <path
         style="fill:none;stroke:#000000;stroke-width:1;stroke-linecap:butt;stroke-linejoin:miter;stroke-miterlimit:4;stroke-dasharray:none;stroke-opacity:1"
         d="m 45.941,100.43491 h -7"
         id="path919" />
      <path
         style="fill:none;stroke:#000000;stroke-width:1;stroke-linecap:butt;stroke-linejoin:miter;stroke-miterlimit:4;stroke-dasharray:none;stroke-opacity:1"
         d="m 45.941,82.434934 h -7"
         id="path921" />
      <path
         style="fill:none;stroke:#000000;stroke-width:1;stroke-linecap:butt;stroke-linejoin:miter;stroke-miterlimit:4;stroke-dasharray:none;stroke-opacity:1"
         d="m 45.941,64.434956 h -7"
         id="path923" />
      <path
         style="fill:none;stroke:#000000;stroke-width:1;stroke-linecap:butt;stroke-linejoin:miter;stroke-miterlimit:4;stroke-dasharray:none;stroke-opacity:1"
         d="m 45.941,46.434979 h -7"
         id="path925" />
      <text
         xml:space="preserve"
         style="font-size:10.5833px;line-height:1.25;font-family:FreeSans;-inkscape-font-specification:FreeSans;stroke-width:0.264583"
         x="91.040985"
         y="189.18054"
         id="text931"><tspan
           sodipodi:role="line"
           id="tspan929"
           x="91.040985"
           y="189.18054"
           style="stroke-width:0.264583">5</tspan></text>
      <text
         xml:space="preserve"
         style="font-size:10.5833px;line-height:1.25;font-family:FreeSans;-inkscape-font-specification:FreeSans;stroke-width:0.264583"
         x="135.77264"
         y="189.18054"
         id="text939"><tspan
           sodipodi:role="line"
           x="135.77264"
           y="189.18054"
           style="stroke-width:0.264583"
           id="tspan953">10</tspan></text>
      <text
         xml:space="preserve"
         style="font-size:10.5833px;line-height:1.25;font-family:FreeSans;-inkscape-font-specification:FreeSans;stroke-width:0.264583"
         x="183.74088"
         y="189.18054"
         id="text943"><tspan
           sodipodi:role="line"
           id="tspan941"
           x="183.74088"
           y="189.18054"
           style="stroke-width:0.264583">15</tspan></text>
      <text
         xml:space="preserve"
         style="font-size:10.5833px;line-height:1.25;font-family:FreeSans;-inkscape-font-specification:FreeSans;stroke-width:0.264583"
         x="232.13245"
         y="189.18054"
         id="text947"><tspan
           sodipodi:role="line"
           id="tspan945"
           x="232.13245"
           y="189.18054"
           style="stroke-width:0.264583">20</tspan></text>
      <text
         xml:space="preserve"
         style="font-size:10.5833px;line-height:1.25;font-family:FreeSans;-inkscape-font-specification:FreeSans;stroke-width:0.264583"
         x="280.10068"
         y="189.18054"
         id="text951"><tspan
           sodipodi:role="line"
           id="tspan949"
           x="280.10068"
           y="189.18054"
           style="stroke-width:0.264583">25</tspan></text>
      <text
         xml:space="preserve"
         style="font-size:10.5833px;line-height:1.25;font-family:FreeSans;-inkscape-font-specification:FreeSans;stroke-width:0.264583"
         x="13.442083"
         y="158.06493"
         id="text959"><tspan
           sodipodi:role="line"
           id="tspan957"
           x="13.442083"
           y="158.06493"
           style="stroke-width:0.264583">1000</tspan></text>
      <text
         xml:space="preserve"
         style="font-size:10.5833px;line-height:1.25;font-family:FreeSans;-inkscape-font-specification:FreeSans;stroke-width:0.264583"
         x="13.442083"
         y="140.06496"
         id="text963"><tspan
           sodipodi:role="line"
           id="tspan961"
           x="13.442083"
           y="140.06496"
           style="stroke-width:0.264583">2000</tspan></text>
      <text
         xml:space="preserve"
         style="font-size:10.5833px;line-height:1.25;font-family:FreeSans;-inkscape-font-specification:FreeSans;stroke-width:0.264583"
         x="13.442083"
         y="122.06496"
         id="text967"><tspan
           sodipodi:role="line"
           id="tspan965"
           x="13.442083"
           y="122.06496"
           style="stroke-width:0.264583">3000</tspan></text>
      <text
         xml:space="preserve"
         style="font-size:10.5833px;line-height:1.25;font-family:FreeSans;-inkscape-font-specification:FreeSans;stroke-width:0.264583"
         x="13.442083"
         y="104.06498"
         id="text971"><tspan
           sodipodi:role="line"
           id="tspan969"
           x="13.442083"
           y="104.06498"
           style="stroke-width:0.264583">4000</tspan></text>
      <text
         xml:space="preserve"
         style="font-size:10.5833px;line-height:1.25;font-family:FreeSans;-inkscape-font-specification:FreeSans;stroke-width:0.264583"
         x="13.442083"
         y="86.065002"
         id="text975"><tspan
           sodipodi:role="line"
           id="tspan973"
           x="13.442083"
           y="86.065002"
           style="stroke-width:0.264583">5000</tspan></text>
      <text
         xml:space="preserve"
         style="font-size:10.5833px;line-height:1.25;font-family:FreeSans;-inkscape-font-specification:FreeSans;stroke-width:0.264583"
         x="13.442083"
         y="68.065025"
         id="text979"><tspan
           sodipodi:role="line"
           id="tspan977"
           x="13.442083"
           y="68.065025"
           style="stroke-width:0.264583">6000</tspan></text>
      <path
         style="fill:#306998;fill-opacity:1;stroke:#4b8bbe;stroke-width:0.900001;stroke-linecap:butt;stroke-linejoin:miter;stroke-miterlimit:4;stroke-dasharray:none;stroke-opacity:1"
         d="M 81.796422,55.462516 79.33591,49.019547"
         id="path985" />
      <path
         style="fill:#306998;fill-opacity:1;stroke:#4b8bbe;stroke-width:0.900001;stroke-linecap:butt;stroke-linejoin:miter;stroke-miterlimit:4;stroke-dasharray:none;stroke-opacity:1"
         d="m 82.854756,55.462347 2.460512,-6.442969"
         id="path987" />
      <circle
         style="fill:#ffd43b;fill-opacity:1;stroke:#ffe873;stroke-width:0.5;stroke-miterlimit:4;stroke-dasharray:none;stroke-opacity:1"
         id="path1081"
         cx="82.428619"
         cy="108.84789"
         r="1.75" />
      <circle
         style="fill:#ffd43b;fill-opacity:1;stroke:#ffe873;stroke-width:0.5;stroke-miterlimit:4;stroke-dasharray:none;stroke-opacity:1"
         id="circle1083"
         cx="88.443199"
         cy="127.02344"
         r="1.75" />
      <circle
         style="fill:#ffd43b;fill-opacity:1;stroke:#ffe873;stroke-width:0.5;stroke-miterlimit:4;stroke-dasharray:none;stroke-opacity:1"
         id="circle1085"
         cx="88.443199"
         cy="127.02344"
         r="1.75" />
      <circle
         style="fill:#ffd43b;fill-opacity:1;stroke:#ffe873;stroke-width:0.5;stroke-miterlimit:4;stroke-dasharray:none;stroke-opacity:1"
         id="circle1087"
         cx="94.654541"
         cy="153.84959"
         r="1.75" />
      <circle
         style="fill:#ffd43b;fill-opacity:1;stroke:#ffe873;stroke-width:0.5;stroke-miterlimit:4;stroke-dasharray:none;stroke-opacity:1"
         id="circle1089"
         cx="119.6137"
         cy="151.32903"
         r="1.75" />
      <circle
         style="fill:#ffd43b;fill-opacity:1;stroke:#ffe873;stroke-width:0.5;stroke-miterlimit:4;stroke-dasharray:none;stroke-opacity:1"
         id="circle1091"
         cx="129.76213"
         cy="122.64359"
         r="1.75" />
      <circle
         style="fill:#ffd43b;fill-opacity:1;stroke:#ffe873;stroke-width:0.5;stroke-miterlimit:4;stroke-dasharray:none;stroke-opacity:1"
         id="circle1093"
         cx="141.71657"
         cy="95.667496"
         r="1.75" />
      <circle
         style="fill:#ffd43b;fill-opacity:1;stroke:#ffe873;stroke-width:0.5;stroke-miterlimit:4;stroke-dasharray:none;stroke-opacity:1"
         id="circle1095"
         cx="157.82518"
         cy="128.12312"
         r="1.75" />
      <circle
         style="fill:#ffd43b;fill-opacity:1;stroke:#ffe873;stroke-width:0.5;stroke-miterlimit:4;stroke-dasharray:none;stroke-opacity:1"
         id="circle1097"
         cx="174.25485"
         cy="156.25404"
         r="1.75" />
      <circle
         style="fill:#ffd43b;fill-opacity:1;stroke:#ffe873;stroke-width:0.5;stroke-miterlimit:4;stroke-dasharray:none;stroke-opacity:1"
         id="circle1099"
         cx="202.9333"
         cy="135.46999"
         r="1.75" />
      <circle
         style="fill:#ffd43b;fill-opacity:1;stroke:#ffe873;stroke-width:0.5;stroke-miterlimit:4;stroke-dasharray:none;stroke-opacity:1"
         id="circle1101"
         cx="215.17876"
         cy="106.33154"
         r="1.55" />
      <circle
         style="fill:#ffd43b;fill-opacity:1;stroke:#ffe873;stroke-width:0.5;stroke-miterlimit:4;stroke-dasharray:none;stroke-opacity:1"
         id="circle1103"
         cx="249.3493"
         cy="119.46907"
         r="0.93097997" />
      <circle
         style="fill:#ffd43b;fill-opacity:1;stroke:#ffe873;stroke-width:0.5;stroke-miterlimit:4;stroke-dasharray:none;stroke-opacity:1"
         id="circle1105"
         cx="232.82729"
         cy="95.719704"
         r="1.37" />
      <ellipse
         style="fill:#ffffff;fill-opacity:1;stroke:#ffffff;stroke-width:0.5;stroke-miterlimit:4;stroke-dasharray:none;stroke-opacity:1"
         id="circle1107"
         cx="76.7929"
         cy="71.484344"
         rx="0.93097997"
         ry="0.79235601" />
      <ellipse
         style="fill:#ffffff;fill-opacity:1;stroke:#ffffff;stroke-width:0.5;stroke-miterlimit:4;stroke-dasharray:none;stroke-opacity:1"
         id="circle1113"
         cx="-87.858276"
         cy="71.484489"
         transform="scale(-1,1)"
         rx="0.93097997"
         ry="0.79250002" />
      <text
         xml:space="preserve"
         style="font-size:10.5833px;line-height:1.25;font-family:FreeSans;-inkscape-font-specification:FreeSans;stroke-width:0.264583"
         x="13.442083"
         y="50.065052"
         id="text1123"><tspan
           sodipodi:role="line"
           id="tspan1121"
           x="13.442083"
           y="50.065052"
           style="stroke-width:0.264583">7000</tspan></text>
    </g>
  </g>
  <g
     inkscape:groupmode="layer"
     id="layer3"
     inkscape:label="Chrom"
     style="display:inline">
    <path
       id="path2842-1"
       style="display:inline;fill:none;fill-rule:evenodd;stroke:#000000;stroke-width:2.00001;stroke-linecap:butt;stroke-linejoin:miter;stroke-miterlimit:4;stroke-dasharray:none;stroke-opacity:1"
       d="m 287.8219,155.06048 c -14.1436,0.21419 -29.02741,-0.27187 -31.16561,-1.25747 -8.29111,-3.82178 -12.73932,-24.15033 -15.14224,-38.87443 -2.33063,-14.28114 -9.01646,-19.958743 -14.05501,-18.544753 -1.03652,0.290884 -1.85661,0.454153 -3.87986,1.689628 -3.63015,2.216715 -11.60059,16.086715 -20.42388,33.059455 -6.95861,13.38585 -14.09232,24.6409 -22.06667,27.36321 -7.29395,2.78713 -14.6801,1.34026 -17.90928,0.76009 -7.6137,-1.98087 -11.96506,-16.27032 -13.87192,-32.23683 -3.22114,-26.97132 -6.30196,-29.583238 -10.10849,-28.938012 -3.40584,0.577309 -7.77685,4.019072 -10.14516,32.467862 -1.33452,16.03074 -7.8618,29.78283 -15.11043,32.84054 -1.40822,0.59403 -2.44714,1.41292 -7.63268,1.76995 -11.666904,-0.78661 -13.54212,-4.12506 -15.11775,-5.57209 -5.94357,-5.45848 -9.580926,-11.8571 -13.840907,-26.62399 -4.5644,-15.82213 -9.801299,-35.979915 -14.472828,-35.979915 -3.783735,0 -5.713038,21.766855 -9.532874,37.785025 -3.476836,14.57981 -1.308066,17.94407 -7.410957,23.56342 -0.862397,0.79407 -1.719621,1.58095 -4.315136,2.12885"
       sodipodi:nodetypes="csssssccsssscsssssc"
       transform="translate(0.78840216,-15.742462)" />
  </g>
  <g
     inkscape:groupmode="layer"
     id="layer2"
     inkscape:label="Text"
     style="display:inline">
    <text
       xml:space="preserve"
       style="font-size:25.4px;line-height:1.25;font-family:FreeSans;-inkscape-font-specification:FreeSans;stroke-width:0.264583"
       x="137.26868"
       y="54.393654"
       id="text1186"
       transform="translate(0.78840216,-15.742462)"><tspan
         sodipodi:role="line"
         id="tspan1184"
         x="137.26868"
         y="54.393654"
         style="font-size:25.4px;stroke-width:0.264583">PyMassSpec</tspan></text>
  </g>
</svg>
